<svg width="48" height="48" viewBox="0 0 48 48" fill="none" xmlns="http://www.w3.org/2000/svg">
<path d="M3 15C3 13.4087 3.63214 11.8826 4.75736 10.7574C5.88258 9.63214 7.4087 9 9 9H39C40.5913 9 42.1174 9.63214 43.2426 10.7574C44.3679 11.8826 45 13.4087 45 15V33C45 34.5913 44.3679 36.1174 43.2426 37.2426C42.1174 38.3679 40.5913 39 39 39H9C7.4087 39 5.88258 38.3679 4.75736 37.2426C3.63214 36.1174 3 34.5913 3 33V15ZM39 36C39.7957 36 40.5587 35.6839 41.1213 35.1213C41.6839 34.5587 42 33.7956 42 33V24H20.121L23.562 27.438C23.8437 27.7197 24.0019 28.1017 24.0019 28.5C24.0019 28.8983 23.8437 29.2803 23.562 29.562C23.2803 29.8437 22.8983 30.0019 22.5 30.0019C22.1017 30.0019 21.7197 29.8437 21.438 29.562L18 26.121V36H39ZM23.745 21H42V15C42 14.2044 41.6839 13.4413 41.1213 12.8787C40.5587 12.3161 39.7957 12 39 12H18V15.255C18.472 15.087 18.972 15.002 19.5 15C20.2201 14.9996 20.9298 15.1721 21.5694 15.5029C22.2091 15.8336 22.76 16.3131 23.1759 16.901C23.5918 17.4888 23.8606 18.1679 23.9596 18.8812C24.0586 19.5945 23.985 20.3211 23.745 21ZM19.5 21C19.7967 21 20.0867 20.912 20.3334 20.7472C20.58 20.5824 20.7723 20.3481 20.8858 20.074C20.9994 19.7999 21.0291 19.4983 20.9712 19.2074C20.9133 18.9164 20.7704 18.6491 20.5607 18.4393C20.3509 18.2296 20.0836 18.0867 19.7926 18.0288C19.5017 17.9709 19.2001 18.0006 18.926 18.1142C18.6519 18.2277 18.4176 18.42 18.2528 18.6666C18.088 18.9133 18 19.2033 18 19.5V21H19.5ZM15 15.255V12H9C8.20435 12 7.44129 12.3161 6.87868 12.8787C6.31607 13.4413 6 14.2044 6 15V21H9.255C8.97091 20.1987 8.91964 19.3333 9.10713 18.504C9.29462 17.6747 9.71319 16.9155 10.3144 16.3144C10.9155 15.7132 11.6747 15.2946 12.504 15.1071C13.3333 14.9196 14.1987 14.9709 15 15.255ZM13.5 21H15V19.5C15 19.2033 14.912 18.9133 14.7472 18.6666C14.5824 18.42 14.3481 18.2277 14.074 18.1142C13.7999 18.0006 13.4983 17.9709 13.2074 18.0288C12.9164 18.0867 12.6491 18.2296 12.4393 18.4393C12.2296 18.6491 12.0867 18.9164 12.0288 19.2074C11.9709 19.4983 12.0006 19.7999 12.1142 20.074C12.2277 20.3481 12.42 20.5824 12.6666 20.7472C12.9133 20.912 13.2033 21 13.5 21ZM12.879 24H6V33C6 33.7956 6.31607 34.5587 6.87868 35.1213C7.44129 35.6839 8.20435 36 9 36H15V26.121L11.562 29.562C11.4225 29.7015 11.257 29.8121 11.0747 29.8876C10.8925 29.963 10.6972 30.0019 10.5 30.0019C10.3028 30.0019 10.1075 29.963 9.92525 29.8876C9.74303 29.8121 9.57746 29.7015 9.438 29.562C9.29854 29.4225 9.18791 29.257 9.11243 29.0748C9.03695 28.8925 8.99811 28.6972 8.99811 28.5C8.99811 28.3028 9.03695 28.1075 9.11243 27.9252C9.18791 27.743 9.29854 27.5775 9.438 27.438L12.879 24Z" fill="black"/>
</svg>
