<svg width="48" height="48" viewBox="0 0 48 48" fill="none" xmlns="http://www.w3.org/2000/svg">
<path d="M24.0003 13C24.2 13 24.3952 13.0599 24.5605 13.1718C24.7259 13.2837 24.854 13.4426 24.9283 13.628C25.6643 15.466 26.5883 16.66 27.5603 17.43C28.4579 18.1394 29.5343 18.5865 30.6703 18.722C32.8583 19.006 35.0683 18.272 36.3983 17.686L36.4263 17.674C36.6048 17.5913 36.7863 17.5153 36.9703 17.446C37.0983 17.402 37.4303 17.284 37.8023 17.366C37.9967 17.4104 38.1793 17.4959 38.338 17.6166C38.4966 17.7373 38.6277 17.8905 38.7223 18.066C38.848 18.3164 38.9 18.5972 38.8723 18.876C38.8623 19.042 38.8323 19.244 38.8043 19.442L37.2523 30.31L37.2383 30.414C37.1603 30.958 37.0923 31.448 36.8463 31.914C36.625 32.3171 36.3194 32.6677 35.9503 32.942C35.5243 33.25 35.0883 33.376 34.6063 33.514L34.5243 33.538C27.6444 35.4874 20.3582 35.4874 13.4783 33.538L13.3943 33.514C12.9143 33.374 12.4783 33.25 12.0523 32.942C11.6831 32.6671 11.3774 32.3158 11.1563 31.912C10.9103 31.448 10.8403 30.958 10.7643 30.414L10.7483 30.31L9.20033 19.472L9.19633 19.442C9.16829 19.254 9.14561 19.0653 9.12833 18.876C9.10067 18.5972 9.15268 18.3164 9.27833 18.066C9.37321 17.8903 9.50457 17.737 9.66359 17.6162C9.82261 17.4955 10.0056 17.4102 10.2003 17.366C10.479 17.3137 10.7668 17.3414 11.0303 17.446C11.1903 17.504 11.3843 17.588 11.5743 17.674L11.6043 17.686C12.9343 18.272 15.1443 19.006 17.3303 18.722C18.4663 18.5865 19.5427 18.1394 20.4403 17.43C21.4123 16.66 22.3383 15.466 23.0723 13.63C23.1463 13.4443 23.2743 13.2849 23.4397 13.1726C23.6051 13.0603 23.8004 13.0002 24.0003 13ZM11.2543 19.71L12.7283 30.028C12.8283 30.732 12.8603 30.858 12.9243 30.978C12.9843 31.09 13.1203 31.246 13.2243 31.322C13.3363 31.402 13.4323 31.442 14.0323 31.616C20.5496 33.4607 27.451 33.4607 33.9683 31.616C34.5683 31.442 34.6643 31.404 34.7783 31.322C34.8994 31.2276 35.0013 31.1108 35.0783 30.978C35.1403 30.858 35.1723 30.732 35.2723 30.028L36.7463 19.71C35.2443 20.32 32.8743 21.024 30.4123 20.706C28.9167 20.5236 27.5002 19.9327 26.3183 18.998C25.3857 18.2417 24.6 17.3204 24.0003 16.28C23.4009 17.3211 22.6152 18.2431 21.6823 19C20.5005 19.9347 19.084 20.5256 17.5883 20.708C15.1263 21.028 12.7583 20.322 11.2543 19.712" fill="black"/>
</svg>
