<svg width="48" height="48" viewBox="0 0 48 48" fill="none" xmlns="http://www.w3.org/2000/svg">
<path d="M8.48 24.5C7.68921 23.7144 7.06268 22.7794 6.6369 21.7493C6.21112 20.7191 5.99462 19.6146 6 18.5C6 16.2456 6.89553 14.0836 8.48959 12.4896C10.0837 10.8955 12.2457 9.99997 14.5 9.99997C17.66 9.99997 20.42 11.72 21.88 14.28H24.12C24.8622 12.9781 25.9362 11.8962 27.2326 11.1443C28.5289 10.3925 30.0014 9.99765 31.5 9.99997C33.7543 9.99997 35.9163 10.8955 37.5104 12.4896C39.1045 14.0836 40 16.2456 40 18.5C40 20.84 39 23 37.52 24.5L23 39L8.48 24.5ZM38.92 25.92C40.82 24 42 21.4 42 18.5C42 15.7152 40.8938 13.0445 38.9246 11.0754C36.9555 9.10622 34.2848 7.99998 31.5 7.99998C28 7.99998 24.9 9.69998 23 12.34C22.0302 10.993 20.7532 9.89661 19.275 9.14183C17.7967 8.38705 16.1598 7.99561 14.5 7.99998C11.7152 7.99998 9.04451 9.10622 7.07538 11.0754C5.10625 13.0445 4 15.7152 4 18.5C4 21.4 5.18 24 7.08 25.92L23 41.84L38.92 25.92Z" fill="black"/>
</svg>
