<svg width="48" height="48" viewBox="0 0 48 48" fill="none" xmlns="http://www.w3.org/2000/svg">
<path d="M43.8749 4.71002H30.0899L29.4029 5.40002V32.736L29.8979 36.321H29.3549V36.687H28.8944V36.228H27.9794V36.594H27.5114V36.0435H26.7839V36.5025H25.1249L22.0949 35.952V34.572H23.3804L23.8334 32.367H27.9239C28.0592 32.367 28.1889 32.3133 28.2846 32.2176C28.3802 32.122 28.4339 31.9923 28.4339 31.857V11.742C28.4341 11.6751 28.4211 11.6089 28.3955 11.5471C28.3699 11.4853 28.3323 11.4292 28.2848 11.382C28.2374 11.3348 28.1811 11.2976 28.1191 11.2723C28.0572 11.2471 27.9908 11.2344 27.9239 11.235H2.38493C2.25071 11.2358 2.12221 11.2895 2.0273 11.3844C1.93239 11.4793 1.87872 11.6078 1.87793 11.742V31.86C1.87793 32.1405 2.10593 32.37 2.38793 32.37H6.91043L7.21043 34.575H9.32243L4.22243 39.675L3.16493 41.925C3.16493 41.925 7.57493 43.5795 13.1819 43.5795C18.7889 43.5795 27.7019 42.294 28.8959 42.294H36.1559V40.455L35.9504 38.8545H38.5664C38.2664 39.0135 38.0864 39.2205 38.0864 39.4485V40.9155C38.0864 41.4255 38.9909 41.835 40.1114 41.835C41.2259 41.835 42.1364 41.43 42.1364 40.917V39.447C42.1364 38.94 41.2289 38.532 40.1114 38.532C39.8309 38.532 39.5669 38.562 39.3254 38.607V38.352H35.8904L35.8079 37.7025H43.8824L43.8749 4.71002ZM3.71543 30.255V13.071H26.3204V30.255H3.71543Z" fill="#FF0000"/>
</svg>
