<svg width="190" height="190" viewBox="0 0 190 190" fill="none" xmlns="http://www.w3.org/2000/svg">
<g clip-path="url(#clip0_92_101)">
<path d="M23.75 23.75H47.5V47.5H23.75V23.75Z" fill="white"/>
<path d="M71.25 0V71.25H0V0H71.25ZM59.375 11.875H11.875V59.375H59.375V11.875ZM47.5 142.5H23.75V166.25H47.5V142.5Z" fill="white"/>
<path d="M71.25 118.75V190H0V118.75H71.25ZM11.875 130.625V178.125H59.375V130.625H11.875ZM142.5 23.75H166.25V47.5H142.5V23.75Z" fill="white"/>
<path d="M118.75 0V71.25H190V0H118.75ZM178.125 11.875V59.375H130.625V11.875H178.125ZM95 11.875V0H106.875V23.75H95V47.5H83.125V11.875H95ZM95 71.25V47.5H106.875V71.25H95ZM71.25 95V83.125H83.125V71.25H95V95H106.875V83.125H166.25V95H118.75V106.875H83.125V95H71.25ZM71.25 95V106.875H23.75V95H11.875V106.875H0V83.125H35.625V95H71.25ZM190 106.875H178.125V83.125H190V106.875ZM178.125 106.875H166.25V130.625H190V118.75H178.125V106.875ZM130.625 106.875H154.375V118.75H142.5V130.625H130.625V106.875ZM154.375 142.5V130.625H142.5V142.5H130.625V154.375H106.875V166.25H142.5V142.5H154.375ZM154.375 142.5H190V154.375H166.25V166.25H154.375V142.5ZM106.875 130.625V142.5H118.75V118.75H83.125V130.625H106.875Z" fill="white"/>
<path d="M83.125 142.5H95V178.125H142.5V190H83.125V142.5ZM190 166.25V190H154.375V178.125H178.125V166.25H190Z" fill="white"/>
</g>
<defs>
<clipPath id="clip0_92_101">
<rect width="190" height="190" fill="white"/>
</clipPath>
</defs>
</svg>
