<svg width="49" height="48" viewBox="0 0 49 48" fill="none" xmlns="http://www.w3.org/2000/svg">
<path d="M19.9453 38C19.9453 37.7348 20.0507 37.4804 20.2382 37.2929C20.4257 37.1054 20.6801 37 20.9453 37H27.9453C28.2105 37 28.4649 37.1054 28.6524 37.2929C28.84 37.4804 28.9453 37.7348 28.9453 38C28.9453 38.2652 28.84 38.5196 28.6524 38.7071C28.4649 38.8946 28.2105 39 27.9453 39H20.9453C20.6801 39 20.4257 38.8946 20.2382 38.7071C20.0507 38.5196 19.9453 38.2652 19.9453 38Z" fill="#FF0000"/>
<path d="M20.7853 4.5H28.1053C29.1753 4.5 30.0653 4.5 30.7953 4.56C31.5553 4.62 32.2673 4.756 32.9413 5.1C33.9764 5.62734 34.818 6.46889 35.3453 7.504C35.6893 8.178 35.8253 8.89 35.8853 9.65C35.9453 10.38 35.9453 11.27 35.9453 12.34V35.66C35.9453 36.73 35.9453 37.62 35.8853 38.35C35.8253 39.11 35.6893 39.822 35.3453 40.496C34.8185 41.5308 33.9777 42.3723 32.9433 42.9C32.2673 43.244 31.5553 43.38 30.7953 43.44C30.0653 43.5 29.1753 43.5 28.1073 43.5H20.7853C19.7153 43.5 18.8253 43.5 18.0953 43.44C17.3353 43.38 16.6233 43.244 15.9493 42.9C14.9148 42.3737 14.0733 41.5336 13.5453 40.5C13.2013 39.824 13.0653 39.112 13.0053 38.352C12.9453 37.622 12.9453 36.732 12.9453 35.662V12.34C12.9453 11.27 12.9453 10.38 13.0053 9.65C13.0653 8.89 13.2013 8.178 13.5453 7.504C14.0727 6.46889 14.9142 5.62734 15.9493 5.1C16.6233 4.756 17.3353 4.62 18.0953 4.56C18.8253 4.5 19.7153 4.5 20.7853 4.5ZM18.3393 7.55C17.7653 7.596 17.4913 7.68 17.3113 7.772C16.8401 8.01182 16.4571 8.39483 16.2173 8.866C16.1253 9.046 16.0413 9.32 15.9953 9.894C15.9473 10.486 15.9453 11.254 15.9453 12.4V35.6C15.9453 36.744 15.9453 37.514 15.9953 38.104C16.0413 38.68 16.1253 38.954 16.2173 39.134C16.4573 39.606 16.8393 39.988 17.3113 40.228C17.4913 40.32 17.7653 40.404 18.3393 40.45C18.9313 40.498 19.6993 40.5 20.8453 40.5H28.0453C29.1893 40.5 29.9593 40.5 30.5493 40.45C31.1253 40.404 31.3993 40.32 31.5813 40.228C32.0517 39.9878 32.434 39.6049 32.6733 39.134C32.7653 38.954 32.8493 38.68 32.8953 38.104C32.9433 37.514 32.9453 36.744 32.9453 35.6V12.4C32.9453 11.256 32.9453 10.486 32.8953 9.894C32.8493 9.32 32.7653 9.046 32.6733 8.866C32.434 8.39513 32.0517 8.01216 31.5813 7.772C31.3993 7.68 31.1253 7.596 30.5513 7.55C30.1273 7.51963 29.7024 7.50429 29.2773 7.504L29.0293 8.25C28.8193 8.878 28.7133 9.194 28.5193 9.426C28.3479 9.63103 28.1279 9.78986 27.8793 9.888C27.5953 10 27.2633 10 26.5993 10H22.2913C21.6273 10 21.2953 10 21.0113 9.888C20.763 9.79043 20.543 9.6323 20.3713 9.428C20.1773 9.194 20.0713 8.878 19.8613 8.248L19.6133 7.504C19.1882 7.50429 18.7633 7.51963 18.3393 7.55Z" fill="#FF0000"/>
</svg>
