<svg width="33" height="34" viewBox="0 0 33 34" fill="none" xmlns="http://www.w3.org/2000/svg">
<path d="M15.6608 24.5246C15.9786 24.3327 16.3765 24.3327 16.6943 24.5246L22.48 28.0166C23.2373 28.4736 24.1715 27.7947 23.9706 26.9332L22.4352 20.3517C22.3509 19.9902 22.4737 19.6117 22.7543 19.3686L27.8709 14.9361C28.539 14.3573 28.1827 13.2599 27.302 13.184L20.5653 12.6031C20.1964 12.5713 19.8753 12.3383 19.7307 11.9975L17.0981 5.79536C16.7532 4.983 15.6019 4.983 15.2571 5.79536L12.6244 11.9975C12.4798 12.3383 12.1587 12.5713 11.7898 12.6031L5.05012 13.1842C4.16989 13.2601 3.81333 14.3567 4.48057 14.9358L9.5889 19.3692C9.86863 19.612 9.99126 19.9895 9.9076 20.3503L8.38043 26.9368C8.18077 27.7979 9.11456 28.4756 9.87132 28.0189L15.6608 24.5246Z" fill="#FF0000"/>
</svg>
