<svg width="44" height="46" viewBox="0 0 44 46" fill="none" xmlns="http://www.w3.org/2000/svg">
<rect x="7.61328" y="12.499" width="26.6466" height="21.1521" fill="white"/>
<path d="M21.8882 0.706055C9.79675 0.706055 0 10.5028 0 22.5943C0 34.6858 9.79675 44.4825 21.8882 44.4825C33.9797 44.4825 43.7765 34.6858 43.7765 22.5943C43.7765 10.5028 33.9797 0.706055 21.8882 0.706055ZM32.6382 15.7013L29.0461 32.6294C28.7813 33.8297 28.0664 34.1209 27.0691 33.5561L21.597 29.5226L18.958 32.0645C18.6668 32.3557 18.4197 32.6029 17.8548 32.6029L18.2431 27.0337L28.3841 17.8724C28.8254 17.4841 28.287 17.2635 27.7045 17.6518L15.1717 25.5421L9.77028 23.8564C8.59643 23.4857 8.56995 22.6826 10.0174 22.1177L31.1201 13.9802C32.0998 13.6272 32.9559 14.2185 32.6382 15.7013Z" fill="#FF0000"/>
</svg>
