<svg width="49" height="48" viewBox="0 0 49 48" fill="none" xmlns="http://www.w3.org/2000/svg">
<path d="M42.0303 34H6.03027V10H42.0303M42.0303 6H6.03027C4.96941 6 3.95199 6.42143 3.20185 7.17157C2.4517 7.92172 2.03027 8.93913 2.03027 10V34C2.03027 35.0609 2.4517 36.0783 3.20185 36.8284C3.95199 37.5786 4.96941 38 6.03027 38H16.0303V42H32.0303V38H42.0303C43.0911 38 44.1086 37.5786 44.8587 36.8284C45.6088 36.0783 46.0303 35.0609 46.0303 34V10C46.0303 8.93913 45.6088 7.92172 44.8587 7.17157C44.1086 6.42143 43.0911 6 42.0303 6Z" fill="#FF0000"/>
</svg>
