<svg width="46" height="46" viewBox="0 0 46 46" fill="none" xmlns="http://www.w3.org/2000/svg">
<rect x="10.4258" y="15.2333" width="26.9209" height="21.1521" fill="white"/>
<path d="M23.4054 1.71521C11.4259 1.71521 1.71484 11.4262 1.71484 23.4058C1.71484 35.3853 11.4259 45.0963 23.4054 45.0963C35.3849 45.0963 45.0959 35.3853 45.0959 23.4058C45.0959 11.4262 35.3849 1.71521 23.4054 1.71521ZM31.7472 26.1871C31.7472 26.1871 33.6655 28.0805 34.1377 28.9594C34.1512 28.979 34.1595 28.9941 34.1625 29.0046C34.3538 29.3255 34.4013 29.5793 34.3049 29.7661C34.1467 30.0779 33.6045 30.2315 33.4192 30.2451H30.03C29.7951 30.2451 29.3025 30.1841 28.706 29.7728C28.2474 29.452 27.7955 28.9255 27.3549 28.4127C26.6974 27.649 26.128 26.9892 25.5541 26.9892C25.4812 26.9889 25.4087 27.0003 25.3395 27.0231C24.9057 27.1632 24.3498 27.7823 24.3498 29.4317C24.3498 29.9468 23.9431 30.2428 23.6562 30.2428H22.104C21.5753 30.2428 18.821 30.0575 16.3808 27.484C13.3938 24.3321 10.7051 18.0102 10.6825 17.9515C10.5131 17.5425 10.8633 17.3234 11.2451 17.3234H14.6682C15.1246 17.3234 15.2737 17.6013 15.3776 17.8476C15.4996 18.1345 15.947 19.2755 16.6813 20.5589C17.872 22.6511 18.6018 23.5007 19.187 23.5007C19.2968 23.4994 19.4045 23.4714 19.5011 23.4193C20.2648 22.9945 20.1224 20.2719 20.0885 19.7071C20.0885 19.6009 20.0863 18.4892 19.6954 17.956C19.4152 17.5696 18.9385 17.4228 18.6493 17.3686C18.7663 17.207 18.9206 17.0761 19.0989 16.9867C19.6231 16.7246 20.5675 16.6862 21.5052 16.6862H22.0271C23.0439 16.6998 23.306 16.7653 23.6743 16.8579C24.4199 17.0364 24.4357 17.5177 24.3702 19.1648C24.3498 19.6325 24.3295 20.1612 24.3295 20.7848L24.3227 21.2186C24.3001 22.0569 24.273 23.0081 24.865 23.399C24.9413 23.4493 25.0311 23.4753 25.1226 23.4735C25.3282 23.4735 25.9473 23.4735 27.6237 20.5973C28.1389 19.6705 28.5881 18.7086 28.9681 17.7188C29.002 17.66 29.1014 17.4793 29.2189 17.4092C29.3065 17.3676 29.4021 17.3452 29.4991 17.3437H33.5231C33.9615 17.3437 34.262 17.4092 34.3184 17.5787C34.4179 17.8476 34.3004 18.6677 32.4635 21.1554L31.6433 22.2376C29.9781 24.4202 29.9781 24.531 31.7472 26.1871Z" fill="#F24822"/>
</svg>
