<svg width="49" height="48" viewBox="0 0 49 48" fill="none" xmlns="http://www.w3.org/2000/svg">
<path d="M30.0243 22.34C31.5216 23.8431 32.3623 25.8783 32.3623 28C32.3623 30.1217 31.5216 32.1569 30.0243 33.66C28.5211 35.1573 26.4859 35.998 24.3643 35.998C22.2426 35.998 20.2074 35.1573 18.7043 33.66L30.0243 22.34ZM12.3643 4H36.3643C37.4251 4 38.4425 4.42143 39.1927 5.17157C39.9428 5.92172 40.3643 6.93913 40.3643 8V40C40.3643 41.0609 39.9428 42.0783 39.1927 42.8284C38.4425 43.5786 37.4251 44 36.3643 44H12.3643C11.3034 44 10.286 43.5786 9.53583 42.8284C8.78569 42.0783 8.36426 41.0609 8.36426 40V8C8.36426 6.93913 8.78569 5.92172 9.53583 5.17157C10.286 4.42143 11.3034 4 12.3643 4ZM14.3643 8C13.8338 8 13.3251 8.21071 12.95 8.58579C12.575 8.96086 12.3643 9.46957 12.3643 10C12.3643 10.5304 12.575 11.0391 12.95 11.4142C13.3251 11.7893 13.8338 12 14.3643 12C14.8947 12 15.4034 11.7893 15.7785 11.4142C16.1535 11.0391 16.3643 10.5304 16.3643 10C16.3643 9.46957 16.1535 8.96086 15.7785 8.58579C15.4034 8.21071 14.8947 8 14.3643 8ZM20.3643 8C19.8338 8 19.3251 8.21071 18.95 8.58579C18.575 8.96086 18.3643 9.46957 18.3643 10C18.3643 10.5304 18.575 11.0391 18.95 11.4142C19.3251 11.7893 19.8338 12 20.3643 12C20.8947 12 21.4034 11.7893 21.7785 11.4142C22.1535 11.0391 22.3643 10.5304 22.3643 10C22.3643 9.46957 22.1535 8.96086 21.7785 8.58579C21.4034 8.21071 20.8947 8 20.3643 8ZM24.3643 16C21.1817 16 18.1294 17.2643 15.879 19.5147C13.6285 21.7652 12.3643 24.8174 12.3643 28C12.3643 31.1826 13.6285 34.2348 15.879 36.4853C18.1294 38.7357 21.1817 40 24.3643 40C27.5469 40 30.5991 38.7357 32.8495 36.4853C35.1 34.2348 36.3643 31.1826 36.3643 28C36.3643 24.8174 35.1 21.7652 32.8495 19.5147C30.5991 17.2643 27.5469 16 24.3643 16Z" fill="#FF0000"/>
</svg>
