<svg width="46" height="47" viewBox="0 0 46 47" fill="none" xmlns="http://www.w3.org/2000/svg">
<rect x="9.97559" y="12.4432" width="26.9209" height="21.1521" fill="white"/>
<path d="M22.9575 4.67151C33.3566 4.67151 41.7861 13.1011 41.7861 23.5001C41.7861 33.8991 33.3566 42.3287 22.9575 42.3287C19.6301 42.3344 16.3611 41.4538 13.4867 39.7774L4.13647 42.3287L6.68209 32.9747C5.00439 30.0994 4.1231 26.829 4.12893 23.5001C4.12893 13.1011 12.5585 4.67151 22.9575 4.67151ZM16.5407 14.6507L16.1642 14.6657C15.9207 14.6825 15.6828 14.7465 15.4638 14.854C15.2596 14.9698 15.0732 15.1144 14.9102 15.2833C14.6842 15.4961 14.5562 15.6806 14.4188 15.8595C13.7223 16.7649 13.3474 17.8766 13.3531 19.0189C13.3568 19.9415 13.5978 20.8396 13.9744 21.6794C14.7445 23.3777 16.0117 25.1759 17.6836 26.8422C18.0866 27.2432 18.482 27.6462 18.9075 28.0209C20.9851 29.8499 23.4608 31.1689 26.1377 31.8732L27.2071 32.037C27.5555 32.0558 27.9038 32.0295 28.254 32.0125C28.8023 31.9836 29.3376 31.8352 29.8224 31.5776C30.0688 31.4502 30.3094 31.312 30.5436 31.1633C30.5436 31.1633 30.6233 31.1094 30.7789 30.9939C31.0331 30.8056 31.1894 30.6719 31.4003 30.4516C31.5584 30.2884 31.6902 30.0989 31.7957 29.883C31.9425 29.5761 32.0894 28.9905 32.1497 28.5029C32.1948 28.1301 32.1817 27.9267 32.176 27.8006C32.1685 27.5991 32.0009 27.3901 31.8183 27.3016L30.7224 26.8102C30.7224 26.8102 29.0844 26.0966 28.0827 25.6409C27.9778 25.5953 27.8655 25.5691 27.7513 25.5637C27.6225 25.5502 27.4922 25.5646 27.3694 25.6059C27.2466 25.6471 27.1341 25.7143 27.0396 25.8028C27.0302 25.7991 26.904 25.9064 25.5427 27.5558C25.4646 27.6608 25.3569 27.7401 25.2335 27.7837C25.1101 27.8273 24.9766 27.8332 24.8498 27.8006C24.7271 27.7679 24.6069 27.7263 24.4902 27.6763C24.2567 27.5784 24.1757 27.5407 24.0157 27.4729C22.9347 27.0021 21.9341 26.3648 21.0502 25.5844C20.813 25.3773 20.5927 25.1514 20.3667 24.933C19.626 24.2235 18.9805 23.421 18.4462 22.5455L18.3351 22.3666C18.2565 22.2457 18.1921 22.1162 18.1431 21.9806C18.0715 21.7039 18.2579 21.4817 18.2579 21.4817C18.2579 21.4817 18.7154 20.9808 18.9282 20.7097C19.1353 20.4461 19.3104 20.19 19.4234 20.0074C19.6456 19.6497 19.7152 19.2825 19.5985 18.9982C19.0713 17.7103 18.5265 16.4293 17.9642 15.1553C17.8531 14.903 17.5236 14.7222 17.2242 14.6864C17.1226 14.6739 17.0209 14.6638 16.9192 14.6563C16.6664 14.6418 16.4129 14.6443 16.1604 14.6638L16.5407 14.6507Z" fill="#F24822"/>
</svg>
